<svg width="13" height="14" viewBox="0 0 13 14" fill="none" xmlns="http://www.w3.org/2000/svg">
<path d="M11.1875 1.875H9.78125V1.40625C9.78125 1.28193 9.73186 1.1627 9.64396 1.07479C9.55605 0.986886 9.43682 0.9375 9.3125 0.9375C9.18818 0.9375 9.06895 0.986886 8.98104 1.07479C8.89314 1.1627 8.84375 1.28193 8.84375 1.40625V1.875H4.15625V1.40625C4.15625 1.28193 4.10686 1.1627 4.01896 1.07479C3.93105 0.986886 3.81182 0.9375 3.6875 0.9375C3.56318 0.9375 3.44395 0.986886 3.35604 1.07479C3.26814 1.1627 3.21875 1.28193 3.21875 1.40625V1.875H1.8125C1.56386 1.875 1.3254 1.97377 1.14959 2.14959C0.973772 2.3254 0.875 2.56386 0.875 2.8125V12.1875C0.875 12.4361 0.973772 12.6746 1.14959 12.8504C1.3254 13.0262 1.56386 13.125 1.8125 13.125H11.1875C11.4361 13.125 11.6746 13.0262 11.8504 12.8504C12.0262 12.6746 12.125 12.4361 12.125 12.1875V2.8125C12.125 2.56386 12.0262 2.3254 11.8504 2.14959C11.6746 1.97377 11.4361 1.875 11.1875 1.875ZM3.21875 2.8125V3.28125C3.21875 3.40557 3.26814 3.5248 3.35604 3.61271C3.44395 3.70061 3.56318 3.75 3.6875 3.75C3.81182 3.75 3.93105 3.70061 4.01896 3.61271C4.10686 3.5248 4.15625 3.40557 4.15625 3.28125V2.8125H8.84375V3.28125C8.84375 3.40557 8.89314 3.5248 8.98104 3.61271C9.06895 3.70061 9.18818 3.75 9.3125 3.75C9.43682 3.75 9.55605 3.70061 9.64396 3.61271C9.73186 3.5248 9.78125 3.40557 9.78125 3.28125V2.8125H11.1875V4.6875H1.8125V2.8125H3.21875ZM11.1875 12.1875H1.8125V5.625H11.1875V12.1875ZM7.20312 7.73438C7.20312 7.87344 7.16189 8.00938 7.08463 8.12501C7.00737 8.24064 6.89755 8.33076 6.76907 8.38398C6.64059 8.4372 6.49922 8.45112 6.36283 8.42399C6.22643 8.39686 6.10115 8.32989 6.00282 8.23156C5.90448 8.13323 5.83752 8.00794 5.81039 7.87155C5.78326 7.73515 5.79718 7.59378 5.8504 7.4653C5.90361 7.33682 5.99374 7.22701 6.10936 7.14975C6.22499 7.07249 6.36094 7.03125 6.5 7.03125C6.68648 7.03125 6.86532 7.10533 6.99718 7.23719C7.12905 7.36905 7.20312 7.54789 7.20312 7.73438ZM9.78125 7.73438C9.78125 7.87344 9.74001 8.00938 9.66275 8.12501C9.58549 8.24064 9.47568 8.33076 9.3472 8.38398C9.21872 8.4372 9.07734 8.45112 8.94095 8.42399C8.80456 8.39686 8.67927 8.32989 8.58094 8.23156C8.48261 8.13323 8.41564 8.00794 8.38851 7.87155C8.36138 7.73515 8.3753 7.59378 8.42852 7.4653C8.48174 7.33682 8.57186 7.22701 8.68749 7.14975C8.80312 7.07249 8.93906 7.03125 9.07812 7.03125C9.26461 7.03125 9.44345 7.10533 9.57531 7.23719C9.70717 7.36905 9.78125 7.54789 9.78125 7.73438ZM4.625 10.0781C4.625 10.2172 4.58376 10.3531 4.5065 10.4688C4.42924 10.5844 4.31943 10.6745 4.19095 10.7277C4.06247 10.7809 3.92109 10.7949 3.7847 10.7677C3.64831 10.7406 3.52302 10.6736 3.42469 10.5753C3.32636 10.477 3.25939 10.3517 3.23226 10.2153C3.20513 10.0789 3.21905 9.93753 3.27227 9.80905C3.32549 9.68057 3.41561 9.57076 3.53124 9.4935C3.64687 9.41624 3.78281 9.375 3.92188 9.375C4.10836 9.375 4.2872 9.44908 4.41906 9.58094C4.55092 9.7128 4.625 9.89164 4.625 10.0781ZM7.20312 10.0781C7.20312 10.2172 7.16189 10.3531 7.08463 10.4688C7.00737 10.5844 6.89755 10.6745 6.76907 10.7277C6.64059 10.7809 6.49922 10.7949 6.36283 10.7677C6.22643 10.7406 6.10115 10.6736 6.00282 10.5753C5.90448 10.477 5.83752 10.3517 5.81039 10.2153C5.78326 10.0789 5.79718 9.93753 5.8504 9.80905C5.90361 9.68057 5.99374 9.57076 6.10936 9.4935C6.22499 9.41624 6.36094 9.375 6.5 9.375C6.68648 9.375 6.86532 9.44908 6.99718 9.58094C7.12905 9.7128 7.20312 9.89164 7.20312 10.0781ZM9.78125 10.0781C9.78125 10.2172 9.74001 10.3531 9.66275 10.4688C9.58549 10.5844 9.47568 10.6745 9.3472 10.7277C9.21872 10.7809 9.07734 10.7949 8.94095 10.7677C8.80456 10.7406 8.67927 10.6736 8.58094 10.5753C8.48261 10.477 8.41564 10.3517 8.38851 10.2153C8.36138 10.0789 8.3753 9.93753 8.42852 9.80905C8.48174 9.68057 8.57186 9.57076 8.68749 9.4935C8.80312 9.41624 8.93906 9.375 9.07812 9.375C9.26461 9.375 9.44345 9.44908 9.57531 9.58094C9.70717 9.7128 9.78125 9.89164 9.78125 10.0781Z" fill="white"/>
</svg>
