<svg width="41" height="57" viewBox="0 0 41 57" fill="none" xmlns="http://www.w3.org/2000/svg">
<path d="M22.3083 10.6967V16.5744C21.944 16.5744 21.5969 16.5744 21.2498 16.5744C16.9498 16.5744 12.647 16.5744 8.34707 16.5744C6.6661 16.5744 5.992 17.2542 5.98913 18.9467C5.98626 21.0264 5.98913 23.1089 5.98913 25.2833H9.4113C9.4113 27.1851 9.42565 28.9923 9.38835 30.7966C9.38549 30.9487 9.04986 31.2183 8.86628 31.2212C5.96331 31.247 3.06034 31.2413 0.0741897 31.2413C0.0512414 30.8798 0.0168197 30.5901 0.0168197 30.3004C0.0139512 25.88 -0.000393847 21.4624 0.0368972 17.042C0.0397658 16.6203 0.260645 16.1068 0.553236 15.7999C2.09938 14.1792 3.69429 12.6072 5.29494 11.0381C5.51008 10.8287 5.8457 10.6222 6.12682 10.6193C11.4566 10.605 16.7863 10.6193 22.119 10.6308C22.1476 10.6308 22.1735 10.648 22.3083 10.6939V10.6967Z" fill="#1A2A42"/>
<path d="M34.1906 31.2297H17.8887V25.375H40.1256C40.14 25.6762 40.1658 25.9688 40.1687 26.2643C40.1687 30.6531 40.1859 35.042 40.1428 39.428C40.14 39.8755 39.8961 40.4205 39.5835 40.7475C38.0832 42.3281 36.5371 43.8628 34.968 45.3774C34.6983 45.6355 34.2566 45.822 33.8837 45.8449C32.8912 45.908 31.8929 45.8679 30.8315 45.8679V39.9415C31.3135 39.9415 31.7581 39.9615 32.2027 39.9386C33.3616 39.8784 34.1619 39.187 34.182 38.1027C34.2222 35.8681 34.1935 33.6307 34.1935 31.2326L34.1906 31.2297Z" fill="#1A2A42"/>
<path d="M10.6572 47.1879H16.5836C16.5836 47.8391 16.5722 48.4357 16.5836 49.0324C16.6066 50.1597 17.0082 50.5642 18.1212 50.5699C19.4235 50.5786 20.7258 50.5757 22.0281 50.5699C23.1928 50.5642 23.5972 50.1683 23.6001 48.9722C23.6087 44.9763 23.603 40.9833 23.603 36.9874C23.603 36.6575 23.603 36.3305 23.603 35.9375H29.4634C29.4863 36.2358 29.5322 36.5514 29.5322 36.8669C29.5408 41.6172 29.5523 46.3704 29.5265 51.1207C29.5265 51.5223 29.3286 52.0128 29.0561 52.3054C27.8541 53.5819 26.6092 54.824 25.3298 56.0259C25.0372 56.3013 24.5553 56.505 24.1566 56.5107C21.4315 56.5537 18.7064 56.5509 15.9812 56.5107C15.6083 56.505 15.158 56.3128 14.8855 56.0575C13.609 54.8527 12.3755 53.602 11.1506 52.3456C10.9326 52.1247 10.6916 51.8034 10.6802 51.5223C10.6314 50.1052 10.6572 48.6853 10.6572 47.1879Z" fill="#1A2A42"/>
<path d="M16.584 9.29127H10.6547C10.6547 7.79676 10.6375 6.35101 10.6719 4.90813C10.6776 4.67865 10.8928 4.42048 11.0735 4.23689C12.3471 2.94031 13.6208 1.6466 14.9317 0.390176C15.1612 0.169298 15.5599 0.0230018 15.8812 0.0201332C18.6981 -0.00855222 21.515 -0.00568306 24.3319 0.0230024C24.6503 0.0258709 25.0433 0.186508 25.2757 0.407386C26.5665 1.64086 27.8315 2.90302 29.0679 4.191C29.3117 4.4463 29.524 4.85937 29.524 5.20072C29.5527 10.1633 29.5412 15.1288 29.5355 20.0913C29.5355 20.2118 29.5068 20.3294 29.4838 20.5216H23.6033C23.6033 20.1717 23.6033 19.8188 23.6033 19.4689C23.6033 15.5648 23.6033 11.6607 23.6033 7.7566C23.6033 6.25061 23.2763 5.9236 21.8076 5.92647C20.6258 5.92647 19.4439 5.91212 18.2649 5.92647C16.9368 5.94368 16.5954 6.29651 16.5868 7.60743C16.584 8.14672 16.5868 8.68314 16.5868 9.28266L16.584 9.29127Z" fill="#1A2A42"/>
<path d="M22.3081 39.9382V45.8187C21.9811 45.8388 21.6885 45.8704 21.3959 45.8704C16.4276 45.8704 11.4622 45.8618 6.49383 45.8847C5.90004 45.8847 5.4841 45.7068 5.0739 45.2823C3.57939 43.739 2.02464 42.2503 0.53873 40.7012C0.260481 40.4115 0.0596831 39.9353 0.0367347 39.5337C-0.0292418 38.3605 0.0137859 37.1844 0.0137859 35.9395H5.98896C5.98896 36.539 5.9861 37.1299 5.98896 37.7237C6.00044 39.2239 6.68602 39.9296 8.23217 39.9382C11.3818 39.9554 14.5315 39.9382 17.6812 39.9382C19.1929 39.9382 20.7046 39.9382 22.311 39.9382H22.3081Z" fill="#1A2A42"/>
<path d="M16.5195 38.645H10.6992V17.9111H16.5195V38.645Z" fill="#1A2A42"/>
<path d="M40.1699 20.5618H34.1862C34.4328 18.1264 34.2091 15.9808 30.8242 16.6118V10.6022C31.9831 10.6022 33.0961 10.5793 34.2034 10.6194C34.4328 10.628 34.691 10.8375 34.8717 11.0182C36.5097 12.6332 38.139 14.2596 39.7511 15.9004C39.9462 16.0984 40.1413 16.3996 40.147 16.6606C40.1871 17.9256 40.1642 19.1935 40.1642 20.5618H40.1699Z" fill="#1A2A42"/>
</svg>
