<svg width="16" height="16" viewBox="0 0 16 16" fill="none" xmlns="http://www.w3.org/2000/svg">
<path d="M8.00015 4.62515C7.33264 4.62515 6.68012 4.8231 6.1251 5.19394C5.57009 5.5648 5.13751 6.0919 4.88206 6.7086C4.62662 7.3253 4.55978 8.0039 4.69 8.65858C4.82023 9.31327 5.14167 9.91464 5.61367 10.3866C6.08567 10.8586 6.68704 11.1801 7.34173 11.3103C7.99641 11.4405 8.67501 11.3737 9.29171 11.1182C9.90841 10.8628 10.4355 10.4302 10.8064 9.87521C11.1772 9.32019 11.3752 8.66767 11.3752 8.00015C11.3742 7.10533 11.0183 6.24743 10.3856 5.6147C9.75288 4.98196 8.89497 4.62609 8.00015 4.62515ZM8.00015 10.2502C7.55515 10.2502 7.12013 10.1182 6.75012 9.87096C6.38011 9.62373 6.09172 9.27233 5.92143 8.86119C5.75113 8.45006 5.70657 7.99766 5.79339 7.5612C5.8802 7.12474 6.0945 6.72383 6.40916 6.40916C6.72383 6.0945 7.12474 5.8802 7.5612 5.79339C7.99766 5.70657 8.45006 5.75113 8.86119 5.92143C9.27233 6.09172 9.62373 6.38011 9.87096 6.75012C10.1182 7.12013 10.2502 7.55515 10.2502 8.00015C10.2502 8.59689 10.0131 9.16919 9.59114 9.59114C9.16919 10.0131 8.59689 10.2502 8.00015 10.2502ZM14.1877 8.15203C14.1905 8.05078 14.1905 7.94953 14.1877 7.84828L15.2367 6.53765C15.2917 6.46884 15.3298 6.38807 15.3479 6.30185C15.3659 6.21562 15.3635 6.12636 15.3408 6.04125C15.1688 5.3948 14.9115 4.77411 14.5758 4.19555C14.5318 4.11983 14.4708 4.05542 14.3975 4.00745C14.3243 3.95948 14.2409 3.92927 14.1539 3.91922L12.4861 3.73359C12.4167 3.66047 12.3464 3.59015 12.2752 3.52265L12.0783 1.85062C12.0682 1.76358 12.0378 1.68012 11.9897 1.60687C11.9416 1.53363 11.8771 1.47263 11.8012 1.42875C11.2225 1.0936 10.6018 0.8366 9.95555 0.664451C9.87038 0.641808 9.78109 0.639492 9.69486 0.65769C9.60864 0.675888 9.52789 0.71409 9.45914 0.769217L8.15203 1.81265C8.05078 1.81265 7.94953 1.81265 7.84828 1.81265L6.53765 0.765701C6.46884 0.710694 6.38807 0.67262 6.30185 0.654545C6.21562 0.63647 6.12636 0.6389 6.04125 0.661638C5.3949 0.833923 4.77426 1.09117 4.19555 1.42664C4.11983 1.4706 4.05542 1.53163 4.00745 1.60487C3.95948 1.67811 3.92927 1.76154 3.91922 1.84851L3.73359 3.51914C3.66047 3.58898 3.59015 3.6593 3.52265 3.73008L1.85062 3.92203C1.76358 3.93216 1.68012 3.96248 1.60687 4.01057C1.53363 4.05867 1.47263 4.12322 1.42875 4.19906C1.0936 4.77785 0.8366 5.39848 0.664451 6.04476C0.641808 6.12993 0.639492 6.21922 0.65769 6.30545C0.675888 6.39167 0.71409 6.47242 0.769217 6.54117L1.81265 7.84828C1.81265 7.94953 1.81265 8.05078 1.81265 8.15203L0.765701 9.46266C0.710694 9.53147 0.67262 9.61224 0.654545 9.69846C0.63647 9.78469 0.6389 9.87395 0.661638 9.95906C0.833616 10.6055 1.09087 11.2262 1.42664 11.8048C1.4706 11.8805 1.53163 11.9449 1.60487 11.9929C1.67811 12.0408 1.76154 12.071 1.84851 12.0811L3.51633 12.2667C3.58617 12.3398 3.65648 12.4102 3.72726 12.4777L3.92203 14.1497C3.93216 14.2367 3.96248 14.3202 4.01057 14.3934C4.05867 14.4667 4.12322 14.5277 4.19906 14.5716C4.77785 14.9067 5.39848 15.1637 6.04476 15.3359C6.12993 15.3585 6.21922 15.3608 6.30545 15.3426C6.39167 15.3244 6.47242 15.2862 6.54117 15.2311L7.84828 14.1877C7.94953 14.1905 8.05078 14.1905 8.15203 14.1877L9.46266 15.2367C9.53147 15.2917 9.61224 15.3298 9.69846 15.3479C9.78469 15.3659 9.87395 15.3635 9.95906 15.3408C10.6055 15.1688 11.2262 14.9115 11.8048 14.5758C11.8805 14.5318 11.9449 14.4708 11.9929 14.3975C12.0408 14.3243 12.071 14.2409 12.0811 14.1539L12.2667 12.4861C12.3398 12.4167 12.4102 12.3464 12.4777 12.2752L14.1497 12.0783C14.2367 12.0682 14.3202 12.0378 14.3934 11.9897C14.4667 11.9416 14.5277 11.8771 14.5716 11.8012C14.9067 11.2225 15.1637 10.6018 15.3359 9.95555C15.3585 9.87038 15.3608 9.78109 15.3426 9.69486C15.3244 9.60864 15.2862 9.52789 15.2311 9.45914L14.1877 8.15203ZM13.0556 7.695C13.0676 7.89826 13.0676 8.10205 13.0556 8.30531C13.0472 8.44447 13.0908 8.58179 13.178 8.69062L14.1757 9.93726C14.0612 10.3011 13.9146 10.6541 13.7377 10.992L12.1486 11.172C12.0102 11.1873 11.8824 11.2535 11.79 11.3576C11.6547 11.5098 11.5105 11.654 11.3583 11.7893C11.2542 11.8817 11.188 12.0095 11.1727 12.1479L10.9962 13.7355C10.6583 13.9126 10.3054 14.0592 9.94148 14.1736L8.69414 13.1759C8.59433 13.0961 8.47034 13.0527 8.34258 13.0528H8.30883C8.10557 13.0648 7.90178 13.0648 7.69851 13.0528C7.55935 13.0444 7.42204 13.088 7.3132 13.1752L6.06305 14.1736C5.6992 14.0591 5.34625 13.9125 5.00836 13.7355L4.82836 12.1486C4.813 12.0102 4.74686 11.8824 4.64273 11.79C4.49051 11.6547 4.34636 11.5105 4.21101 11.3583C4.11858 11.2542 3.99081 11.188 3.85242 11.1727L2.26476 10.9955C2.08771 10.6576 1.94112 10.3047 1.82672 9.94078L2.82445 8.69344C2.91157 8.5846 2.95517 8.44729 2.9468 8.30812C2.93484 8.10486 2.93484 7.90107 2.9468 7.69781C2.95517 7.55865 2.91157 7.42134 2.82445 7.3125L1.82672 6.06305C1.9412 5.6992 2.0878 5.34625 2.26476 5.00836L3.85172 4.82836C3.9901 4.813 4.11787 4.74686 4.21031 4.64273C4.34566 4.49051 4.48981 4.34636 4.64203 4.21101C4.74657 4.11852 4.81298 3.99045 4.82836 3.85172L5.00484 2.26476C5.3427 2.08771 5.69565 1.94112 6.05953 1.82672L7.30687 2.82445C7.41571 2.91157 7.55303 2.95517 7.69219 2.9468C7.89545 2.93484 8.09924 2.93484 8.3025 2.9468C8.44166 2.95517 8.57897 2.91157 8.68781 2.82445L9.93726 1.82672C10.3011 1.9412 10.6541 2.0878 10.992 2.26476L11.172 3.85172C11.1873 3.9901 11.2535 4.11787 11.3576 4.21031C11.5098 4.34566 11.654 4.48981 11.7893 4.64203C11.8817 4.74615 12.0095 4.81229 12.1479 4.82765L13.7355 5.00414C13.9126 5.34199 14.0592 5.69495 14.1736 6.05883L13.1759 7.30617C13.0879 7.41593 13.0442 7.55465 13.0535 7.695H13.0556Z" fill="#1A2A42"/>
</svg>
