<svg width="17" height="17" viewBox="0 0 17 17" fill="none" xmlns="http://www.w3.org/2000/svg">
<path d="M12.8932 9.07453L9.26653 7.73437L7.93059 4.10484C7.85148 3.88992 7.70834 3.70443 7.5205 3.57341C7.33266 3.44239 7.10915 3.37214 6.88012 3.37214C6.6511 3.37214 6.42759 3.44239 6.23975 3.57341C6.0519 3.70443 5.90877 3.88992 5.82966 4.10484L4.48528 7.73437L0.855749 9.07031C0.640824 9.14942 0.455338 9.29256 0.324317 9.4804C0.193296 9.66825 0.123047 9.89176 0.123047 10.1208C0.123047 10.3498 0.193296 10.5733 0.324317 10.7612C0.455338 10.949 0.640824 11.0921 0.855749 11.1712L4.48528 12.5156L5.82122 16.1452C5.90033 16.3601 6.04346 16.5456 6.23131 16.6766C6.41915 16.8076 6.64266 16.8779 6.87169 16.8779C7.10071 16.8779 7.32422 16.8076 7.51206 16.6766C7.69991 16.5456 7.84304 16.3601 7.92215 16.1452L9.26653 12.5156L12.8961 11.1797C13.111 11.1006 13.2965 10.9574 13.4275 10.7696C13.5585 10.5818 13.6288 10.3582 13.6288 10.1292C13.6288 9.90019 13.5585 9.67668 13.4275 9.48884C13.2965 9.301 13.111 9.15786 12.8961 9.07875L12.8932 9.07453ZM8.63372 11.5467C8.55736 11.5749 8.48802 11.6192 8.43048 11.6768C8.37295 11.7343 8.32858 11.8036 8.30044 11.88L6.87591 15.7395L5.45419 11.8828C5.42609 11.8057 5.38144 11.7356 5.32338 11.6775C5.26532 11.6195 5.19525 11.5748 5.11809 11.5467L1.26145 10.125L5.11809 8.70328C5.19525 8.67519 5.26532 8.63054 5.32338 8.57248C5.38144 8.51441 5.42609 8.44434 5.45419 8.36719L6.87591 4.51055L8.29762 8.36719C8.32576 8.44354 8.37013 8.51288 8.42767 8.57042C8.48521 8.62796 8.55455 8.67233 8.63091 8.70047L12.4904 10.125L8.63372 11.5467ZM9.1259 2.8125C9.1259 2.66332 9.18517 2.52024 9.29066 2.41475C9.39614 2.30926 9.53922 2.25 9.6884 2.25H10.8134V1.125C10.8134 0.975816 10.8727 0.832742 10.9782 0.727252C11.0836 0.621763 11.2267 0.5625 11.3759 0.5625C11.5251 0.5625 11.6682 0.621763 11.7737 0.727252C11.8791 0.832742 11.9384 0.975816 11.9384 1.125V2.25H13.0634C13.2126 2.25 13.3557 2.30926 13.4612 2.41475C13.5666 2.52024 13.6259 2.66332 13.6259 2.8125C13.6259 2.96168 13.5666 3.10476 13.4612 3.21025C13.3557 3.31574 13.2126 3.375 13.0634 3.375H11.9384V4.5C11.9384 4.64918 11.8791 4.79226 11.7737 4.89775C11.6682 5.00324 11.5251 5.0625 11.3759 5.0625C11.2267 5.0625 11.0836 5.00324 10.9782 4.89775C10.8727 4.79226 10.8134 4.64918 10.8134 4.5V3.375H9.6884C9.53922 3.375 9.39614 3.31574 9.29066 3.21025C9.18517 3.10476 9.1259 2.96168 9.1259 2.8125ZM16.4384 6.1875C16.4384 6.33668 16.3791 6.47976 16.2737 6.58525C16.1682 6.69074 16.0251 6.75 15.8759 6.75H15.3134V7.3125C15.3134 7.46168 15.2541 7.60476 15.1487 7.71025C15.0432 7.81574 14.9001 7.875 14.7509 7.875C14.6017 7.875 14.4586 7.81574 14.3532 7.71025C14.2477 7.60476 14.1884 7.46168 14.1884 7.3125V6.75H13.6259C13.4767 6.75 13.3336 6.69074 13.2282 6.58525C13.1227 6.47976 13.0634 6.33668 13.0634 6.1875C13.0634 6.03832 13.1227 5.89524 13.2282 5.78975C13.3336 5.68426 13.4767 5.625 13.6259 5.625H14.1884V5.0625C14.1884 4.91332 14.2477 4.77024 14.3532 4.66475C14.4586 4.55926 14.6017 4.5 14.7509 4.5C14.9001 4.5 15.0432 4.55926 15.1487 4.66475C15.2541 4.77024 15.3134 4.91332 15.3134 5.0625V5.625H15.8759C16.0251 5.625 16.1682 5.68426 16.2737 5.78975C16.3791 5.89524 16.4384 6.03832 16.4384 6.1875Z" fill="#1A2A42"/>
</svg>
