<svg width="13" height="13" viewBox="0 0 13 13" fill="none" xmlns="http://www.w3.org/2000/svg">
<path d="M6.5 0.171875C4.82168 0.171875 3.21209 0.838586 2.02534 2.02534C0.838586 3.21209 0.171875 4.82168 0.171875 6.5C0.171875 8.17832 0.838586 9.78791 2.02534 10.9747C3.21209 12.1614 4.82168 12.8281 6.5 12.8281C7.80488 12.8281 9.17715 12.4338 10.1703 11.7734C10.3257 11.6702 10.4337 11.5094 10.4706 11.3265C10.5075 11.1436 10.4702 10.9535 10.3669 10.7981C10.2636 10.6427 10.1029 10.5347 9.91996 10.4979C9.73706 10.461 9.547 10.4983 9.3916 10.6016C8.62988 11.1072 7.52305 11.4219 6.5 11.4219C5.52655 11.4219 4.57495 11.1332 3.76555 10.5924C2.95615 10.0516 2.32531 9.28288 1.95278 8.38352C1.58026 7.48416 1.48279 6.49454 1.6727 5.53979C1.86261 4.58504 2.33137 3.70805 3.01971 3.01971C3.70805 2.33137 4.58504 1.86261 5.53979 1.6727C6.49454 1.48279 7.48416 1.58026 8.38352 1.95278C9.28288 2.32531 10.0516 2.95615 10.5924 3.76555C11.1332 4.57495 11.4219 5.52655 11.4219 6.5C11.4219 7.04434 11.324 7.50078 11.1471 7.78613C10.9924 8.03457 10.7955 8.14062 10.4844 8.14062C10.1732 8.14062 9.97637 8.03457 9.82168 7.78613C9.6459 7.50078 9.54688 7.04434 9.54688 6.5V4.15625C9.54686 3.98754 9.48618 3.82445 9.37591 3.69676C9.26563 3.56907 9.11313 3.48529 8.94621 3.4607C8.7793 3.43612 8.60911 3.47237 8.4667 3.56284C8.3243 3.65331 8.21917 3.79197 8.17051 3.95352C7.68707 3.63586 7.1232 3.46238 6.54481 3.45337C5.96642 3.44436 5.39742 3.60018 4.90432 3.90262C4.41122 4.20506 4.01441 4.64162 3.76027 5.16126C3.50613 5.6809 3.40516 6.26215 3.46918 6.83706C3.53319 7.41196 3.75954 7.95677 4.12176 8.40778C4.48398 8.85879 4.96711 9.19737 5.51466 9.38393C6.0622 9.5705 6.65155 9.59734 7.21379 9.46132C7.77603 9.3253 8.28793 9.03204 8.68965 8.61582C9.0957 9.21289 9.71152 9.54688 10.4844 9.54688C11.9299 9.54688 12.8281 8.37969 12.8281 6.5C12.8263 4.82225 12.159 3.21375 10.9726 2.0274C9.78625 0.841045 8.17775 0.173736 6.5 0.171875ZM6.5 8.14062C6.17552 8.14062 5.85832 8.0444 5.58852 7.86413C5.31872 7.68386 5.10844 7.42762 4.98426 7.12784C4.86009 6.82805 4.8276 6.49818 4.8909 6.17993C4.9542 5.86168 5.11046 5.56935 5.3399 5.3399C5.56935 5.11046 5.86168 4.9542 6.17993 4.8909C6.49818 4.8276 6.82805 4.86009 7.12784 4.98426C7.42762 5.10844 7.68386 5.31872 7.86413 5.58852C8.0444 5.85832 8.14062 6.17552 8.14062 6.5C8.14062 6.93512 7.96777 7.35242 7.6601 7.6601C7.35242 7.96777 6.93512 8.14062 6.5 8.14062Z" fill="black"/>
</svg>
