<svg width="6" height="10" viewBox="0 0 6 10" fill="none" xmlns="http://www.w3.org/2000/svg">
<path d="M3 9.6875C2.42003 9.68688 1.86399 9.45621 1.45389 9.04611C1.04379 8.63601 0.81312 8.07997 0.8125 7.5V1.875C0.8125 1.4606 0.97712 1.06317 1.27015 0.770146C1.56317 0.47712 1.9606 0.3125 2.375 0.3125C2.7894 0.3125 3.18683 0.47712 3.47985 0.770146C3.77288 1.06317 3.9375 1.4606 3.9375 1.875L3.9375 7.5C3.9375 7.74864 3.83873 7.9871 3.66291 8.16291C3.4871 8.33873 3.24864 8.4375 3 8.4375C2.75136 8.4375 2.5129 8.33873 2.33709 8.16291C2.16127 7.9871 2.0625 7.74864 2.0625 7.5L2.0625 3.125C2.0625 3.04212 2.09542 2.96263 2.15403 2.90403C2.21263 2.84542 2.29212 2.8125 2.375 2.8125C2.45788 2.8125 2.53737 2.84542 2.59597 2.90403C2.65458 2.96263 2.6875 3.04212 2.6875 3.125L2.6875 7.5C2.6875 7.58288 2.72042 7.66237 2.77903 7.72097C2.83763 7.77958 2.91712 7.8125 3 7.8125C3.08288 7.8125 3.16237 7.77958 3.22097 7.72097C3.27958 7.66237 3.3125 7.58288 3.3125 7.5L3.3125 1.875C3.3125 1.62636 3.21373 1.3879 3.03791 1.21209C2.8621 1.03627 2.62364 0.9375 2.375 0.9375C2.12636 0.9375 1.8879 1.03627 1.71209 1.21209C1.53627 1.3879 1.4375 1.62636 1.4375 1.875L1.4375 7.5C1.4375 7.9144 1.60212 8.31183 1.89515 8.60485C2.18817 8.89788 2.5856 9.0625 3 9.0625C3.4144 9.0625 3.81183 8.89788 4.10485 8.60485C4.39788 8.31183 4.5625 7.9144 4.5625 7.5V3.125C4.5625 3.04212 4.59542 2.96263 4.65403 2.90403C4.71263 2.84542 4.79212 2.8125 4.875 2.8125C4.95788 2.8125 5.03737 2.84542 5.09597 2.90403C5.15458 2.96263 5.1875 3.04212 5.1875 3.125V7.5C5.18688 8.07997 4.95621 8.63601 4.54611 9.04611C4.13601 9.45621 3.57997 9.68688 3 9.6875Z" fill="#999999"/>
</svg>
