<svg width="12" height="15" viewBox="0 0 12 15" fill="none" xmlns="http://www.w3.org/2000/svg">
<path d="M9.33812 6.94297C9.88117 6.42024 10.2556 5.74715 10.4133 5.01009C10.5711 4.27303 10.5049 3.50564 10.2234 2.80644C9.94189 2.10724 9.45782 1.50814 8.83335 1.08603C8.20888 0.663924 7.4725 0.438084 6.71875 0.4375H0.875C0.692664 0.4375 0.517795 0.509933 0.388864 0.638864C0.259933 0.767795 0.1875 0.942664 0.1875 1.125V14.1875C0.1875 14.3698 0.259933 14.5447 0.388864 14.6736C0.517795 14.8026 0.692664 14.875 0.875 14.875H7.75C8.70345 14.875 9.62747 14.5447 10.3649 13.9403C11.1023 13.3359 11.6075 12.4947 11.7947 11.5598C11.9819 10.6249 11.8394 9.65405 11.3916 8.81234C10.9437 7.97062 10.2181 7.31005 9.33812 6.94297ZM1.5625 1.8125H6.71875C7.35693 1.8125 7.96897 2.06602 8.42023 2.51727C8.87149 2.96853 9.125 3.58057 9.125 4.21875C9.125 4.85693 8.87149 5.46897 8.42023 5.92023C7.96897 6.37148 7.35693 6.625 6.71875 6.625H1.5625V1.8125ZM7.75 13.5H1.5625V8H7.75C8.47935 8 9.17882 8.28973 9.69454 8.80546C10.2103 9.32118 10.5 10.0207 10.5 10.75C10.5 11.4793 10.2103 12.1788 9.69454 12.6945C9.17882 13.2103 8.47935 13.5 7.75 13.5Z" fill="black"/>
</svg>
