<svg width="13" height="14" viewBox="0 0 13 14" fill="none" xmlns="http://www.w3.org/2000/svg">
<path d="M11.1875 1.64062H10.0156V1.40625C10.0156 1.21977 9.94155 1.04093 9.80968 0.909066C9.67782 0.777204 9.49898 0.703125 9.3125 0.703125C9.12602 0.703125 8.94718 0.777204 8.81532 0.909066C8.68345 1.04093 8.60938 1.21977 8.60938 1.40625V1.64062H4.39062V1.40625C4.39062 1.21977 4.31655 1.04093 4.18468 0.909066C4.05282 0.777204 3.87398 0.703125 3.6875 0.703125C3.50102 0.703125 3.32218 0.777204 3.19032 0.909066C3.05845 1.04093 2.98438 1.21977 2.98438 1.40625V1.64062H1.8125C1.5017 1.64062 1.20363 1.76409 0.983859 1.98386C0.76409 2.20363 0.640625 2.5017 0.640625 2.8125V12.1875C0.640625 12.4983 0.76409 12.7964 0.983859 13.0161C1.20363 13.2359 1.5017 13.3594 1.8125 13.3594H11.1875C11.4983 13.3594 11.7964 13.2359 12.0161 13.0161C12.2359 12.7964 12.3594 12.4983 12.3594 12.1875V2.8125C12.3594 2.5017 12.2359 2.20363 12.0161 1.98386C11.7964 1.76409 11.4983 1.64062 11.1875 1.64062ZM2.98438 3.04688C2.98438 3.23336 3.05845 3.4122 3.19032 3.54406C3.32218 3.67592 3.50102 3.75 3.6875 3.75C3.87398 3.75 4.05282 3.67592 4.18468 3.54406C4.31655 3.4122 4.39062 3.23336 4.39062 3.04688H8.60938C8.60938 3.23336 8.68345 3.4122 8.81532 3.54406C8.94718 3.67592 9.12602 3.75 9.3125 3.75C9.49898 3.75 9.67782 3.67592 9.80968 3.54406C9.94155 3.4122 10.0156 3.23336 10.0156 3.04688H10.9531V4.45312H2.04688V3.04688H2.98438ZM2.04688 11.9531V5.85938H10.9531V11.9531H2.04688ZM9.10684 7.00254C9.17239 7.06786 9.2244 7.14548 9.25988 7.23095C9.29537 7.31641 9.31364 7.40804 9.31364 7.50059C9.31364 7.59313 9.29537 7.68476 9.25988 7.77022C9.2244 7.85569 9.17239 7.93331 9.10684 7.99863L6.29434 10.8111C6.22901 10.8767 6.15139 10.9287 6.06593 10.9642C5.98046 10.9997 5.88883 11.0179 5.79629 11.0179C5.70375 11.0179 5.61212 10.9997 5.52665 10.9642C5.44118 10.9287 5.36356 10.8767 5.29824 10.8111L3.89199 9.40488C3.7599 9.27279 3.68569 9.09364 3.68569 8.90684C3.68569 8.72003 3.7599 8.54088 3.89199 8.40879C4.02408 8.2767 4.20324 8.20249 4.39004 8.20249C4.57684 8.20249 4.756 8.2767 4.88809 8.40879L5.79688 9.31641L8.11191 7.00078C8.17733 6.93552 8.25497 6.8838 8.34039 6.84856C8.42581 6.81333 8.51734 6.79528 8.60974 6.79544C8.70214 6.79561 8.7936 6.81398 8.8789 6.84952C8.9642 6.88505 9.04165 6.93705 9.10684 7.00254Z" fill="black"/>
</svg>
