<svg width="9" height="9" viewBox="0 0 9 9" fill="none" xmlns="http://www.w3.org/2000/svg">
<path d="M5.71875 4.375C5.71875 4.45788 5.68583 4.53737 5.62722 4.59597C5.56862 4.65458 5.48913 4.6875 5.40625 4.6875H2.75C2.66712 4.6875 2.58763 4.65458 2.52903 4.59597C2.47042 4.53737 2.4375 4.45788 2.4375 4.375C2.4375 4.29212 2.47042 4.21263 2.52903 4.15403C2.58763 4.09542 2.66712 4.0625 2.75 4.0625H5.40625C5.48913 4.0625 5.56862 4.09542 5.62722 4.15403C5.68583 4.21263 5.71875 4.29212 5.71875 4.375ZM5.40625 5.3125H2.75C2.66712 5.3125 2.58763 5.34542 2.52903 5.40403C2.47042 5.46263 2.4375 5.54212 2.4375 5.625C2.4375 5.70788 2.47042 5.78737 2.52903 5.84597C2.58763 5.90458 2.66712 5.9375 2.75 5.9375H5.40625C5.48913 5.9375 5.56862 5.90458 5.62722 5.84597C5.68583 5.78737 5.71875 5.70788 5.71875 5.625C5.71875 5.54212 5.68583 5.46263 5.62722 5.40403C5.56862 5.34542 5.48913 5.3125 5.40625 5.3125ZM8.0625 4.84375C8.06136 5.8794 7.64945 6.87231 6.91713 7.60463C6.18481 8.33695 5.1919 8.74886 4.15625 8.75H0.875C0.70924 8.75 0.550268 8.68415 0.433058 8.56694C0.315848 8.44973 0.25 8.29076 0.25 8.125V4.84375C0.25 3.80775 0.66155 2.81418 1.39411 2.08161C2.12668 1.34905 3.12025 0.9375 4.15625 0.9375C5.19225 0.9375 6.18582 1.34905 6.91839 2.08161C7.65095 2.81418 8.0625 3.80775 8.0625 4.84375ZM7.4375 4.84375C7.4375 3.97351 7.0918 3.13891 6.47644 2.52356C5.86109 1.9082 5.02649 1.5625 4.15625 1.5625C3.28601 1.5625 2.45141 1.9082 1.83606 2.52356C1.2207 3.13891 0.875 3.97351 0.875 4.84375V8.125H4.15625C5.02621 8.12407 5.86026 7.77807 6.47542 7.16292C7.09057 6.54776 7.43657 5.71371 7.4375 4.84375Z" fill="#999999"/>
</svg>
