<svg width="8" height="8" viewBox="0 0 8 8" fill="none" xmlns="http://www.w3.org/2000/svg">
<path d="M7.34627 6.59165C7.3753 6.62069 7.39833 6.65516 7.41405 6.69309C7.42976 6.73103 7.43785 6.77168 7.43785 6.81275C7.43785 6.85381 7.42976 6.89447 7.41405 6.9324C7.39833 6.97034 7.3753 7.00481 7.34627 7.03384C7.31723 7.06287 7.28276 7.08591 7.24483 7.10162C7.20689 7.11733 7.16623 7.12542 7.12517 7.12542C7.08411 7.12542 7.04345 7.11733 7.00552 7.10162C6.96758 7.08591 6.93311 7.06287 6.90408 7.03384L4.00017 4.12954L1.09627 7.03384C1.03763 7.09248 0.9581 7.12542 0.875174 7.12542C0.792248 7.12542 0.712718 7.09248 0.65408 7.03384C0.595442 6.9752 0.5625 6.89567 0.5625 6.81275C0.5625 6.72982 0.595442 6.65029 0.65408 6.59165L3.77908 3.46665C3.8081 3.4376 3.84257 3.41455 3.8805 3.39882C3.91844 3.38309 3.95911 3.375 4.00017 3.375C4.04124 3.375 4.08191 3.38309 4.11984 3.39882C4.15778 3.41455 4.19224 3.4376 4.22127 3.46665L7.34627 6.59165ZM1.09627 3.90884L4.00017 1.00454L6.90408 3.90884C6.93311 3.93787 6.96758 3.96091 7.00552 3.97662C7.04345 3.99233 7.08411 4.00042 7.12517 4.00042C7.16623 4.00042 7.20689 3.99233 7.24483 3.97662C7.28276 3.96091 7.31723 3.93787 7.34627 3.90884C7.3753 3.87981 7.39833 3.84534 7.41405 3.8074C7.42976 3.76947 7.43785 3.72881 7.43785 3.68775C7.43785 3.64668 7.42976 3.60603 7.41405 3.56809C7.39833 3.53016 7.3753 3.49569 7.34627 3.46665L4.22127 0.341652C4.19224 0.312597 4.15778 0.289547 4.11984 0.273821C4.08191 0.258095 4.04124 0.25 4.00017 0.25C3.95911 0.25 3.91844 0.258095 3.8805 0.273821C3.84257 0.289547 3.8081 0.312597 3.77908 0.341652L0.65408 3.46665C0.595442 3.52529 0.5625 3.60482 0.5625 3.68775C0.5625 3.77067 0.595442 3.8502 0.65408 3.90884C0.712718 3.96748 0.792248 4.00042 0.875174 4.00042C0.9581 4.00042 1.03763 3.96748 1.09627 3.90884Z" fill="#FF0000"/>
</svg>
