<svg width="14" height="14" viewBox="0 0 14 14" fill="none" xmlns="http://www.w3.org/2000/svg">
<path d="M13.1875 0.8125C13.1875 0.994836 13.1151 1.1697 12.9861 1.29864C12.8572 1.42757 12.6823 1.5 12.5 1.5H9.55836L5.89141 12.5H8.375C8.55734 12.5 8.73221 12.5724 8.86114 12.7014C8.99007 12.8303 9.0625 13.0052 9.0625 13.1875C9.0625 13.3698 8.99007 13.5447 8.86114 13.6736C8.73221 13.8026 8.55734 13.875 8.375 13.875H1.5C1.31766 13.875 1.1428 13.8026 1.01386 13.6736C0.884933 13.5447 0.8125 13.3698 0.8125 13.1875C0.8125 13.0052 0.884933 12.8303 1.01386 12.7014C1.1428 12.5724 1.31766 12.5 1.5 12.5H4.44164L8.10859 1.5H5.625C5.44266 1.5 5.2678 1.42757 5.13886 1.29864C5.00993 1.1697 4.9375 0.994836 4.9375 0.8125C4.9375 0.630164 5.00993 0.455295 5.13886 0.326364C5.2678 0.197433 5.44266 0.125 5.625 0.125H12.5C12.6823 0.125 12.8572 0.197433 12.9861 0.326364C13.1151 0.455295 13.1875 0.630164 13.1875 0.8125Z" fill="black"/>
</svg>
