<svg width="8" height="5" viewBox="0 0 8 5" fill="none" xmlns="http://www.w3.org/2000/svg">
<path d="M0.653732 0.52866C0.682755 0.499605 0.717221 0.476555 0.755157 0.460829C0.793095 0.445103 0.833759 0.437009 0.874826 0.437009C0.915893 0.437009 0.956559 0.445103 0.994495 0.460829C1.03243 0.476555 1.0669 0.499605 1.09592 0.52866L3.99983 3.43296L6.90373 0.52866C6.96237 0.470022 7.0419 0.43708 7.12483 0.43708C7.20775 0.43708 7.28728 0.470022 7.34592 0.52866C7.40456 0.587298 7.4375 0.666828 7.4375 0.749754C7.4375 0.83268 7.40456 0.91221 7.34592 0.970848L4.22092 4.09585C4.1919 4.1249 4.15743 4.14795 4.1195 4.16368C4.08156 4.17941 4.04089 4.1875 3.99983 4.1875C3.95876 4.1875 3.91809 4.17941 3.88016 4.16368C3.84222 4.14795 3.80776 4.1249 3.77873 4.09585L0.653732 0.970848C0.624677 0.941825 0.601627 0.90736 0.585901 0.869423C0.570174 0.831486 0.56208 0.790822 0.56208 0.749754C0.56208 0.708687 0.570174 0.668022 0.585901 0.630085C0.601627 0.592148 0.624677 0.557683 0.653732 0.52866Z" fill="#0080FF"/>
</svg>
