<svg width="8" height="5" viewBox="0 0 8 5" fill="none" xmlns="http://www.w3.org/2000/svg">
<path d="M7.34627 4.47134C7.31725 4.50039 7.28278 4.52344 7.24484 4.53917C7.20691 4.5549 7.16624 4.56299 7.12517 4.56299C7.08411 4.56299 7.04344 4.5549 7.0055 4.53917C6.96757 4.52344 6.9331 4.50039 6.90408 4.47134L4.00017 1.56704L1.09627 4.47134C1.03763 4.52998 0.9581 4.56292 0.875174 4.56292C0.792248 4.56292 0.712718 4.52998 0.65408 4.47134C0.595442 4.4127 0.5625 4.33317 0.5625 4.25025C0.5625 4.16732 0.595442 4.08779 0.65408 4.02915L3.77908 0.904152C3.8081 0.875097 3.84257 0.852047 3.8805 0.836321C3.91844 0.820595 3.95911 0.8125 4.00017 0.8125C4.04124 0.8125 4.08191 0.820595 4.11984 0.836321C4.15778 0.852047 4.19224 0.875097 4.22127 0.904152L7.34627 4.02915C7.37532 4.05817 7.39837 4.09264 7.4141 4.13058C7.42983 4.16851 7.43792 4.20918 7.43792 4.25025C7.43792 4.29131 7.42983 4.33198 7.4141 4.36991C7.39837 4.40785 7.37532 4.44232 7.34627 4.47134Z" fill="#FF5900"/>
</svg>
