<svg width="13" height="13" viewBox="0 0 13 13" fill="none" xmlns="http://www.w3.org/2000/svg">
<path d="M3.92188 5.32812C3.92188 5.14164 3.99595 4.9628 4.12782 4.83094C4.25968 4.69908 4.43852 4.625 4.625 4.625H8.375C8.56148 4.625 8.74032 4.69908 8.87218 4.83094C9.00405 4.9628 9.07812 5.14164 9.07812 5.32812C9.07812 5.51461 9.00405 5.69345 8.87218 5.82531C8.74032 5.95717 8.56148 6.03125 8.375 6.03125H4.625C4.43852 6.03125 4.25968 5.95717 4.12782 5.82531C3.99595 5.69345 3.92188 5.51461 3.92188 5.32812ZM5.79688 6.96875H4.625C4.43852 6.96875 4.25968 7.04283 4.12782 7.17469C3.99595 7.30655 3.92188 7.48539 3.92188 7.67188C3.92188 7.85836 3.99595 8.0372 4.12782 8.16906C4.25968 8.30092 4.43852 8.375 4.625 8.375H5.79688C5.98336 8.375 6.1622 8.30092 6.29406 8.16906C6.42592 8.0372 6.5 7.85836 6.5 7.67188C6.5 7.48539 6.42592 7.30655 6.29406 7.17469C6.1622 7.04283 5.98336 6.96875 5.79688 6.96875ZM12.3594 1.8125V8.18106C12.3598 8.335 12.3297 8.4875 12.2707 8.62972C12.2118 8.77194 12.1252 8.90105 12.016 9.00957L9.00957 12.016C8.90105 12.1252 8.77194 12.2118 8.62972 12.2707C8.4875 12.3297 8.335 12.3598 8.18106 12.3594H1.8125C1.5017 12.3594 1.20363 12.2359 0.983859 12.0161C0.76409 11.7964 0.640625 11.4983 0.640625 11.1875V1.8125C0.640625 1.5017 0.76409 1.20363 0.983859 0.983859C1.20363 0.76409 1.5017 0.640625 1.8125 0.640625H11.1875C11.4983 0.640625 11.7964 0.76409 12.0161 0.983859C12.2359 1.20363 12.3594 1.5017 12.3594 1.8125ZM2.04688 10.9531H7.4375V8.14062C7.4375 7.95414 7.51158 7.7753 7.64344 7.64344C7.7753 7.51158 7.95414 7.4375 8.14062 7.4375H10.9531V2.04688H2.04688V10.9531ZM10.1914 8.84375H8.84375V10.1914L10.1914 8.84375Z" fill="black"/>
</svg>
