<svg width="14" height="18" viewBox="0 0 14 18" fill="none" xmlns="http://www.w3.org/2000/svg">
<path d="M13.6922 5.43281L9.31719 1.05781C9.2591 0.999791 9.19015 0.953782 9.11428 0.922415C9.03841 0.891047 8.9571 0.874936 8.875 0.875H1.375C1.04348 0.875 0.725537 1.0067 0.491116 1.24112C0.256696 1.47554 0.125 1.79348 0.125 2.125V15.875C0.125 16.2065 0.256696 16.5245 0.491116 16.7589C0.725537 16.9933 1.04348 17.125 1.375 17.125H12.625C12.9565 17.125 13.2745 16.9933 13.5089 16.7589C13.7433 16.5245 13.875 16.2065 13.875 15.875V5.875C13.8751 5.7929 13.859 5.71159 13.8276 5.63572C13.7962 5.55985 13.7502 5.4909 13.6922 5.43281ZM9.5 3.00859L11.7414 5.25H9.5V3.00859ZM12.625 15.875H5.75V14.625H6.375C6.54076 14.625 6.69973 14.5592 6.81694 14.4419C6.93415 14.3247 7 14.1658 7 14C7 13.8342 6.93415 13.6753 6.81694 13.5581C6.69973 13.4408 6.54076 13.375 6.375 13.375H5.75V12.125H6.375C6.54076 12.125 6.69973 12.0592 6.81694 11.9419C6.93415 11.8247 7 11.6658 7 11.5C7 11.3342 6.93415 11.1753 6.81694 11.0581C6.69973 10.9408 6.54076 10.875 6.375 10.875H5.75V9.625H6.375C6.54076 9.625 6.69973 9.55915 6.81694 9.44194C6.93415 9.32473 7 9.16576 7 9C7 8.83424 6.93415 8.67527 6.81694 8.55806C6.69973 8.44085 6.54076 8.375 6.375 8.375H5.75V7.75C5.75 7.58424 5.68415 7.42527 5.56694 7.30806C5.44973 7.19085 5.29076 7.125 5.125 7.125C4.95924 7.125 4.80027 7.19085 4.68306 7.30806C4.56585 7.42527 4.5 7.58424 4.5 7.75V8.375H3.875C3.70924 8.375 3.55027 8.44085 3.43306 8.55806C3.31585 8.67527 3.25 8.83424 3.25 9C3.25 9.16576 3.31585 9.32473 3.43306 9.44194C3.55027 9.55915 3.70924 9.625 3.875 9.625H4.5V10.875H3.875C3.70924 10.875 3.55027 10.9408 3.43306 11.0581C3.31585 11.1753 3.25 11.3342 3.25 11.5C3.25 11.6658 3.31585 11.8247 3.43306 11.9419C3.55027 12.0592 3.70924 12.125 3.875 12.125H4.5V13.375H3.875C3.70924 13.375 3.55027 13.4408 3.43306 13.5581C3.31585 13.6753 3.25 13.8342 3.25 14C3.25 14.1658 3.31585 14.3247 3.43306 14.4419C3.55027 14.5592 3.70924 14.625 3.875 14.625H4.5V15.875H1.375V2.125H8.25V5.875C8.25 6.04076 8.31585 6.19973 8.43306 6.31694C8.55027 6.43415 8.70924 6.5 8.875 6.5H12.625V15.875Z" fill="#1A2A42"/>
</svg>
