<svg width="18" height="14" viewBox="0 0 18 14" fill="none" xmlns="http://www.w3.org/2000/svg">
<path d="M1.1875 7C1.02174 7 0.862768 6.93415 0.745558 6.81694C0.628348 6.69973 0.5625 6.54076 0.5625 6.375C0.5625 6.20924 0.628348 6.05027 0.745558 5.93306C0.862768 5.81585 1.02174 5.75 1.1875 5.75H3.375C3.54076 5.75 3.69973 5.68415 3.81694 5.56694C3.93415 5.44973 4 5.29076 4 5.125C4 4.95924 3.93415 4.80027 3.81694 4.68306C3.69973 4.56585 3.54076 4.5 3.375 4.5H2.125C1.62772 4.5 1.15081 4.30246 0.799175 3.95083C0.447544 3.59919 0.25 3.12228 0.25 2.625C0.25 2.12772 0.447544 1.65081 0.799175 1.29917C1.15081 0.947544 1.62772 0.75 2.125 0.75C2.125 0.58424 2.19085 0.425269 2.30806 0.308058C2.42527 0.190848 2.58424 0.125 2.75 0.125C2.91576 0.125 3.07473 0.190848 3.19194 0.308058C3.30915 0.425269 3.375 0.58424 3.375 0.75H4C4.16576 0.75 4.32473 0.815848 4.44194 0.933058C4.55915 1.05027 4.625 1.20924 4.625 1.375C4.625 1.54076 4.55915 1.69973 4.44194 1.81694C4.32473 1.93415 4.16576 2 4 2H2.125C1.95924 2 1.80027 2.06585 1.68306 2.18306C1.56585 2.30027 1.5 2.45924 1.5 2.625C1.5 2.79076 1.56585 2.94973 1.68306 3.06694C1.80027 3.18415 1.95924 3.25 2.125 3.25H3.375C3.87228 3.25 4.34919 3.44754 4.70083 3.79917C5.05246 4.15081 5.25 4.62772 5.25 5.125C5.25 5.62228 5.05246 6.09919 4.70083 6.45083C4.34919 6.80246 3.87228 7 3.375 7C3.375 7.16576 3.30915 7.32473 3.19194 7.44194C3.07473 7.55915 2.91576 7.625 2.75 7.625C2.58424 7.625 2.42527 7.55915 2.30806 7.44194C2.19085 7.32473 2.125 7.16576 2.125 7H1.1875ZM17.125 1.375V12C17.125 12.3315 16.9933 12.6495 16.7589 12.8839C16.5245 13.1183 16.2065 13.25 15.875 13.25H2.125C1.79348 13.25 1.47554 13.1183 1.24112 12.8839C1.0067 12.6495 0.875 12.3315 0.875 12V8.875C0.875 8.70924 0.940848 8.55027 1.05806 8.43306C1.17527 8.31585 1.33424 8.25 1.5 8.25C1.66576 8.25 1.82473 8.31585 1.94194 8.43306C2.05915 8.55027 2.125 8.70924 2.125 8.875V12H11.5V9.5H5.25C5.08424 9.5 4.92527 9.43415 4.80806 9.31694C4.69085 9.19973 4.625 9.04076 4.625 8.875C4.625 8.70924 4.69085 8.55027 4.80806 8.43306C4.92527 8.31585 5.08424 8.25 5.25 8.25H11.5V5.75H7.125C6.95924 5.75 6.80027 5.68415 6.68306 5.56694C6.56585 5.44973 6.5 5.29076 6.5 5.125C6.5 4.95924 6.56585 4.80027 6.68306 4.68306C6.80027 4.56585 6.95924 4.5 7.125 4.5H15.875V2H6.5C6.33424 2 6.17527 1.93415 6.05806 1.81694C5.94085 1.69973 5.875 1.54076 5.875 1.375C5.875 1.20924 5.94085 1.05027 6.05806 0.933058C6.17527 0.815848 6.33424 0.75 6.5 0.75H16.5C16.6658 0.75 16.8247 0.815848 16.9419 0.933058C17.0592 1.05027 17.125 1.20924 17.125 1.375ZM12.75 8.25H15.875V5.75H12.75V8.25ZM15.875 12V9.5H12.75V12H15.875Z" fill="#1A2A42"/>
</svg>
