<svg width="16" height="14" viewBox="0 0 16 14" fill="none" xmlns="http://www.w3.org/2000/svg">
<path d="M15.5003 6.99986C15.5003 7.16562 15.4345 7.32459 15.3173 7.4418C15.2001 7.55901 15.0411 7.62486 14.8753 7.62486H8.00035C7.83459 7.62486 7.67562 7.55901 7.55841 7.4418C7.4412 7.32459 7.37535 7.16562 7.37535 6.99986C7.37535 6.8341 7.4412 6.67513 7.55841 6.55792C7.67562 6.44071 7.83459 6.37486 8.00035 6.37486H14.8753C15.0411 6.37486 15.2001 6.44071 15.3173 6.55792C15.4345 6.67513 15.5003 6.8341 15.5003 6.99986ZM8.00035 2.62486H14.8753C15.0411 2.62486 15.2001 2.55901 15.3173 2.4418C15.4345 2.32459 15.5003 2.16562 15.5003 1.99986C15.5003 1.8341 15.4345 1.67513 15.3173 1.55792C15.2001 1.44071 15.0411 1.37486 14.8753 1.37486H8.00035C7.83459 1.37486 7.67562 1.44071 7.55841 1.55792C7.4412 1.67513 7.37535 1.8341 7.37535 1.99986C7.37535 2.16562 7.4412 2.32459 7.55841 2.4418C7.67562 2.55901 7.83459 2.62486 8.00035 2.62486ZM14.8753 11.3749H8.00035C7.83459 11.3749 7.67562 11.4407 7.55841 11.5579C7.4412 11.6751 7.37535 11.8341 7.37535 11.9999C7.37535 12.1656 7.4412 12.3246 7.55841 12.4418C7.67562 12.559 7.83459 12.6249 8.00035 12.6249H14.8753C15.0411 12.6249 15.2001 12.559 15.3173 12.4418C15.4345 12.3246 15.5003 12.1656 15.5003 11.9999C15.5003 11.8341 15.4345 11.6751 15.3173 11.5579C15.2001 11.4407 15.0411 11.3749 14.8753 11.3749ZM4.43316 0.307672L2.37535 2.36627L1.56753 1.55767C1.45026 1.4404 1.2912 1.37451 1.12535 1.37451C0.959495 1.37451 0.800435 1.4404 0.68316 1.55767C0.565885 1.67495 0.5 1.83401 0.5 1.99986C0.5 2.16571 0.565885 2.32477 0.68316 2.44205L1.93316 3.69205C1.99121 3.75016 2.06014 3.79626 2.13601 3.82771C2.21188 3.85916 2.29321 3.87535 2.37535 3.87535C2.45748 3.87535 2.53881 3.85916 2.61469 3.82771C2.69056 3.79626 2.75949 3.75016 2.81753 3.69205L5.31754 1.19205C5.43481 1.07477 5.5007 0.915712 5.5007 0.749859C5.50069 0.584007 5.43481 0.424947 5.31754 0.307672C5.20026 0.190396 5.0412 0.124512 4.87535 0.124512C4.7095 0.124512 4.55044 0.190396 4.43316 0.307672ZM4.43316 5.30767L2.37535 7.36627L1.56753 6.55767C1.45026 6.4404 1.2912 6.37451 1.12535 6.37451C0.959495 6.37451 0.800435 6.4404 0.68316 6.55767C0.565885 6.67495 0.5 6.83401 0.5 6.99986C0.5 7.08198 0.516175 7.1633 0.547602 7.23917C0.579028 7.31504 0.625091 7.38398 0.68316 7.44205L1.93316 8.69205C1.99121 8.75016 2.06014 8.79626 2.13601 8.82771C2.21188 8.85916 2.29321 8.87535 2.37535 8.87535C2.45748 8.87535 2.53881 8.85916 2.61469 8.82771C2.69056 8.79626 2.75949 8.75016 2.81753 8.69205L5.31754 6.19205C5.43481 6.07477 5.50069 5.91571 5.5007 5.74986C5.50069 5.58401 5.43481 5.42495 5.31754 5.30767C5.20026 5.1904 5.0412 5.12451 4.87535 5.12451C4.7095 5.12451 4.55044 5.1904 4.43316 5.30767ZM4.43316 10.3077L2.37535 12.3663L1.56753 11.5577C1.50947 11.4996 1.44053 11.4535 1.36466 11.4221C1.28879 11.3907 1.20747 11.3745 1.12535 11.3745C1.04323 11.3745 0.961908 11.3907 0.886037 11.4221C0.810167 11.4535 0.741229 11.4996 0.68316 11.5577C0.625091 11.6157 0.579028 11.6847 0.547602 11.7605C0.516175 11.8364 0.5 11.9177 0.5 11.9999C0.5 12.082 0.516175 12.1633 0.547602 12.2392C0.579028 12.315 0.625091 12.384 0.68316 12.442L1.93316 13.692C1.99121 13.7502 2.06014 13.7963 2.13601 13.8277C2.21188 13.8592 2.29321 13.8754 2.37535 13.8754C2.45748 13.8754 2.53881 13.8592 2.61469 13.8277C2.69056 13.7963 2.75949 13.7502 2.81753 13.692L5.31754 11.192C5.43481 11.0748 5.5007 10.9157 5.5007 10.7499C5.50069 10.584 5.43481 10.4249 5.31754 10.3077C5.20026 10.1904 5.0412 10.1245 4.87535 10.1245C4.7095 10.1245 4.55044 10.1904 4.43316 10.3077Z" fill="#1A2A42"/>
</svg>
