<svg width="12" height="12" viewBox="0 0 12 12" fill="none" xmlns="http://www.w3.org/2000/svg">
<path d="M10.125 2.25V4.5C10.125 4.59946 10.0855 4.69484 10.0152 4.76516C9.94484 4.83549 9.84946 4.875 9.75 4.875C9.65054 4.875 9.55516 4.83549 9.48483 4.76516C9.41451 4.69484 9.375 4.59946 9.375 4.5V3.15516L7.01531 5.51531C6.94495 5.58568 6.84951 5.62521 6.75 5.62521C6.65049 5.62521 6.55505 5.58568 6.48469 5.51531C6.41432 5.44495 6.37479 5.34951 6.37479 5.25C6.37479 5.15049 6.41432 5.05505 6.48469 4.98469L8.84484 2.625H7.5C7.40054 2.625 7.30516 2.58549 7.23483 2.51516C7.16451 2.44484 7.125 2.34946 7.125 2.25C7.125 2.15054 7.16451 2.05516 7.23483 1.98484C7.30516 1.91451 7.40054 1.875 7.5 1.875H9.75C9.84946 1.875 9.94484 1.91451 10.0152 1.98484C10.0855 2.05516 10.125 2.15054 10.125 2.25ZM4.98469 6.48469L2.625 8.84484V7.5C2.625 7.40054 2.58549 7.30516 2.51516 7.23483C2.44484 7.16451 2.34946 7.125 2.25 7.125C2.15054 7.125 2.05516 7.16451 1.98484 7.23483C1.91451 7.30516 1.875 7.40054 1.875 7.5V9.75C1.875 9.84946 1.91451 9.94484 1.98484 10.0152C2.05516 10.0855 2.15054 10.125 2.25 10.125H4.5C4.59946 10.125 4.69484 10.0855 4.76516 10.0152C4.83549 9.94484 4.875 9.84946 4.875 9.75C4.875 9.65054 4.83549 9.55516 4.76516 9.48483C4.69484 9.41451 4.59946 9.375 4.5 9.375H3.15516L5.51531 7.01531C5.58568 6.94495 5.62521 6.84951 5.62521 6.75C5.62521 6.65049 5.58568 6.55505 5.51531 6.48469C5.44495 6.41432 5.34951 6.37479 5.25 6.37479C5.15049 6.37479 5.05505 6.41432 4.98469 6.48469Z" fill="white"/>
</svg>
