<svg width="11" height="13" viewBox="0 0 11 13" fill="none" xmlns="http://www.w3.org/2000/svg">
<path d="M10.5191 3.82461L7.23789 0.54336C7.19433 0.499843 7.14262 0.465337 7.08571 0.441811C7.02881 0.418286 6.96783 0.406202 6.90625 0.40625H1.28125C1.03261 0.40625 0.794153 0.505022 0.618337 0.680837C0.442522 0.856653 0.34375 1.09511 0.34375 1.34375V11.6562C0.34375 11.9049 0.442522 12.1433 0.618337 12.3192C0.794153 12.495 1.03261 12.5938 1.28125 12.5938H9.71875C9.96739 12.5938 10.2058 12.495 10.3817 12.3192C10.5575 12.1433 10.6562 11.9049 10.6562 11.6562V4.15625C10.6563 4.09467 10.6442 4.03369 10.6207 3.97679C10.5972 3.91989 10.5627 3.86817 10.5191 3.82461ZM7.375 2.00645L9.05606 3.6875H7.375V2.00645ZM9.71875 11.6562H1.28125V1.34375H6.4375V4.15625C6.4375 4.28057 6.48689 4.3998 6.57479 4.48771C6.6627 4.57561 6.78193 4.625 6.90625 4.625H9.71875V11.6562ZM7.23789 8.04336C7.28147 8.08689 7.31605 8.13859 7.33964 8.1955C7.36323 8.2524 7.37537 8.3134 7.37537 8.375C7.37537 8.4366 7.36323 8.4976 7.33964 8.5545C7.31605 8.61141 7.28147 8.66311 7.23789 8.70664L5.83164 10.1129C5.78811 10.1565 5.73641 10.191 5.6795 10.2146C5.6226 10.2382 5.5616 10.2504 5.5 10.2504C5.4384 10.2504 5.3774 10.2382 5.3205 10.2146C5.26359 10.191 5.21189 10.1565 5.16836 10.1129L3.76211 8.70664C3.67415 8.61868 3.62474 8.49939 3.62474 8.375C3.62474 8.25061 3.67415 8.13132 3.76211 8.04336C3.85007 7.9554 3.96936 7.90599 4.09375 7.90599C4.21814 7.90599 4.33743 7.9554 4.42539 8.04336L5.03125 8.64981V6.03125C5.03125 5.90693 5.08064 5.7877 5.16854 5.69979C5.25645 5.61189 5.37568 5.5625 5.5 5.5625C5.62432 5.5625 5.74355 5.61189 5.83146 5.69979C5.91936 5.7877 5.96875 5.90693 5.96875 6.03125V8.64981L6.57461 8.04336C6.61814 7.99978 6.66984 7.9652 6.72675 7.94161C6.78365 7.91802 6.84465 7.90588 6.90625 7.90588C6.96785 7.90588 7.02885 7.91802 7.08575 7.94161C7.14266 7.9652 7.19436 7.99978 7.23789 8.04336Z" fill="white"/>
</svg>
