<svg width="13" height="12" viewBox="0 0 13 12" fill="none" xmlns="http://www.w3.org/2000/svg">
<path d="M12.5118 0.902164C12.4397 0.735471 12.3201 0.593665 12.168 0.494383C12.0159 0.395101 11.838 0.342724 11.6564 0.343765H1.34386C1.16241 0.344123 0.984966 0.397127 0.833051 0.496347C0.681136 0.595568 0.561278 0.736741 0.488017 0.90274C0.414756 1.06874 0.391242 1.25243 0.420325 1.43153C0.449409 1.61063 0.529841 1.77745 0.651864 1.91173L0.656552 1.91701L4.62511 6.15451V10.6563C4.62507 10.8259 4.67108 10.9924 4.75823 11.138C4.84538 11.2836 4.97041 11.4028 5.11998 11.4829C5.26955 11.563 5.43806 11.601 5.60754 11.5929C5.77702 11.5848 5.94112 11.5308 6.08233 11.4367L7.95733 10.1863C8.08587 10.1007 8.19126 9.98468 8.26414 9.84852C8.33703 9.71237 8.37514 9.56031 8.37511 9.40587V6.15451L12.3442 1.91701L12.3489 1.91173C12.4722 1.77806 12.5535 1.61102 12.5824 1.43148C12.6114 1.25194 12.5868 1.06784 12.5118 0.902164ZM7.56534 5.65119C7.48425 5.73716 7.43863 5.85059 7.43761 5.96876V9.40587L5.56261 10.6563V5.96876C5.56264 5.84973 5.51739 5.73515 5.43604 5.64826L1.34386 1.28127H11.6564L7.56534 5.65119Z" fill="white"/>
</svg>
