<svg width="10" height="10" viewBox="0 0 10 10" fill="none" xmlns="http://www.w3.org/2000/svg">
<path d="M6.76545 3.23488C6.80031 3.2697 6.82797 3.31106 6.84684 3.35659C6.86572 3.40211 6.87543 3.45091 6.87543 3.50019C6.87543 3.54947 6.86572 3.59827 6.84684 3.64379C6.82797 3.68932 6.80031 3.73067 6.76545 3.7655L3.76545 6.7655C3.73061 6.80034 3.68924 6.82798 3.64372 6.84684C3.5982 6.86569 3.54941 6.8754 3.50013 6.8754C3.45086 6.8754 3.40207 6.86569 3.35655 6.84684C3.31103 6.82798 3.26966 6.80034 3.23482 6.7655C3.19998 6.73066 3.17234 6.6893 3.15349 6.64378C3.13463 6.59825 3.12493 6.54946 3.12493 6.50019C3.12493 6.45092 3.13463 6.40213 3.15349 6.3566C3.17234 6.31108 3.19998 6.26972 3.23482 6.23488L6.23482 3.23488C6.26965 3.20001 6.31101 3.17235 6.35653 3.15348C6.40206 3.13461 6.45085 3.12489 6.50013 3.12489C6.54941 3.12489 6.59821 3.13461 6.64374 3.15348C6.68926 3.17235 6.73062 3.20001 6.76545 3.23488ZM9.10638 0.893939C8.86263 0.650157 8.57324 0.456777 8.25474 0.324842C7.93624 0.192906 7.59488 0.125 7.25013 0.125C6.90539 0.125 6.56402 0.192906 6.24553 0.324842C5.92703 0.456777 5.63764 0.650157 5.39388 0.893939L3.98482 2.30253C3.91446 2.3729 3.87493 2.46833 3.87493 2.56785C3.87493 2.66736 3.91446 2.76279 3.98482 2.83316C4.05519 2.90352 4.15062 2.94305 4.25013 2.94305C4.34965 2.94305 4.44508 2.90352 4.51545 2.83316L5.92451 1.42691C6.27742 1.08174 6.75222 0.889681 7.24586 0.8924C7.7395 0.895118 8.21215 1.0924 8.56124 1.44143C8.91033 1.79046 9.1077 2.26308 9.1105 2.75671C9.11331 3.25035 8.92133 3.72518 8.57623 4.07816L7.1667 5.48722C7.09633 5.55752 7.05678 5.6529 7.05673 5.75237C7.05669 5.85184 7.09616 5.94725 7.16646 6.01761C7.23676 6.08798 7.33214 6.12753 7.43161 6.12758C7.53108 6.12762 7.62649 6.08815 7.69685 6.01785L9.10638 4.60644C9.35017 4.36268 9.54355 4.07329 9.67548 3.7548C9.80742 3.4363 9.87532 3.09493 9.87532 2.75019C9.87532 2.40545 9.80742 2.06408 9.67548 1.74558C9.54355 1.42709 9.35017 1.1377 9.10638 0.893939ZM5.48482 7.16675L4.07576 8.57581C3.90236 8.75311 3.69551 8.89424 3.46719 8.99105C3.23887 9.08785 2.99361 9.1384 2.74562 9.13976C2.49763 9.14113 2.25183 9.09328 2.02246 8.999C1.79309 8.90472 1.5847 8.76587 1.40935 8.5905C1.23401 8.41512 1.0952 8.20671 1.00096 7.97732C0.906716 7.74793 0.858916 7.50212 0.860326 7.25413C0.861735 7.00614 0.912326 6.7609 1.00917 6.53259C1.10601 6.30429 1.24718 6.09747 1.42451 5.9241L2.8331 4.5155C2.90347 4.44514 2.943 4.3497 2.943 4.25019C2.943 4.15068 2.90347 4.05524 2.8331 3.98488C2.76274 3.91451 2.6673 3.87498 2.56779 3.87498C2.46828 3.87498 2.37284 3.91451 2.30248 3.98488L0.893884 5.39394C0.401576 5.88625 0.125 6.55396 0.125 7.25019C0.125 7.94642 0.401576 8.61413 0.893884 9.10644C1.38619 9.59875 2.05391 9.87532 2.75013 9.87532C3.44636 9.87532 4.11408 9.59875 4.60638 9.10644L6.01545 7.69691C6.08575 7.62654 6.12522 7.53113 6.12518 7.43166C6.12513 7.3322 6.08558 7.23682 6.01521 7.16652C5.94485 7.09621 5.84944 7.05674 5.74997 7.05679C5.6505 7.05683 5.55512 7.09639 5.48482 7.16675Z" fill="white"/>
</svg>
