<svg width="13" height="13" viewBox="0 0 13 13" fill="none" xmlns="http://www.w3.org/2000/svg">
<path d="M12.4559 11.7931L9.52213 8.85992C10.3725 7.83905 10.7965 6.52965 10.706 5.2041C10.6155 3.87856 10.0174 2.63894 9.03624 1.74311C8.05505 0.84728 6.76626 0.364213 5.43797 0.394401C4.10969 0.424588 2.84418 0.965705 1.9047 1.90519C0.965217 2.84467 0.4241 4.11018 0.393912 5.43846C0.363725 6.76675 0.846792 8.05554 1.74262 9.03673C2.63845 10.0179 3.87808 10.616 5.20362 10.7065C6.52916 10.797 7.83856 10.373 8.85944 9.52262L11.7926 12.4564C11.8362 12.5 11.8879 12.5345 11.9448 12.5581C12.0017 12.5816 12.0627 12.5938 12.1243 12.5938C12.1859 12.5938 12.2469 12.5816 12.3038 12.5581C12.3607 12.5345 12.4124 12.5 12.4559 12.4564C12.4995 12.4129 12.534 12.3612 12.5576 12.3043C12.5812 12.2473 12.5933 12.1864 12.5933 12.1248C12.5933 12.0632 12.5812 12.0022 12.5576 11.9453C12.534 11.8884 12.4995 11.8367 12.4559 11.7931ZM1.34303 5.56227C1.34303 4.72788 1.59045 3.91223 2.05402 3.21846C2.51758 2.52469 3.17646 1.98396 3.94733 1.66465C4.71821 1.34534 5.56646 1.2618 6.38482 1.42458C7.20317 1.58736 7.95488 1.98916 8.54489 2.57916C9.13489 3.16916 9.53669 3.92087 9.69947 4.73923C9.86225 5.55759 9.7787 6.40584 9.4594 7.17671C9.14009 7.94759 8.59936 8.60647 7.90559 9.07003C7.21182 9.53359 6.39617 9.78102 5.56178 9.78102C4.44328 9.77978 3.37094 9.33491 2.58004 8.54401C1.78914 7.7531 1.34427 6.68077 1.34303 5.56227Z" fill="#424243"/>
</svg>
